<svg xmlns:xlink="http://www.w3.org/1999/xlink" width="17" height="17" viewBox="0 0 17 17" fill="none" xmlns="http://www.w3.org/2000/svg">
		  <path d="M13.0683 1.46313L8.96313 5.56832C8.70735 5.8241 8.29265 5.8241 8.03687 5.56832L3.93168 1.46313C3.48064 1.01209 2.74936 1.01209 2.29832 1.46313L1.46313 2.29832C1.01209 2.74936 1.01209 3.48064 1.46313 3.93168L5.56832 8.03687C5.8241 8.29265 5.8241 8.70735 5.56832 8.96313L1.46313 13.0683C1.01209 13.5194 1.01209 14.2506 1.46313 14.7017L2.29832 15.5369C2.74936 15.9879 3.48064 15.9879 3.93168 15.5369L8.03687 11.4317C8.29265 11.1759 8.70735 11.1759 8.96313 11.4317L13.0683 15.5369C13.5194 15.9879 14.2506 15.9879 14.7017 15.5369L15.5369 14.7017C15.9879 14.2506 15.9879 13.5194 15.5369 13.0683L11.4317 8.96313C11.1759 8.70735 11.1759 8.29265 11.4317 8.03687L15.5369 3.93168C15.9879 3.48064 15.9879 2.74936 15.5369 2.29832L14.7017 1.46313C14.2506 1.01209 13.5194 1.01209 13.0683 1.46313Z" stroke="#161616" stroke-width="0.5px" fill="none"></path>
		</svg>