<?xml version="1.0" encoding="iso-8859-1"?>
<!-- Uploaded to: SVG Repo, www.svgrepo.com, Generator: SVG Repo Mixer Tools -->
<svg version="1.1" id="Capa_1" xmlns="http://www.w3.org/2000/svg" xmlns:xlink="http://www.w3.org/1999/xlink" 
	 viewBox="0 0 612 612" xml:space="preserve">
<g>
	
		<rect x="354.096" y="321.93" style="fill:none;stroke:#FF0000;stroke-width:0.25;stroke-miterlimit:10;" width="17.883" height="3.75"/>
	<g>
		<path d="M490.81,372.54c0,0-117.505-118.049-118.829-119.246c16.504-16.939,26.302-39.926,26.479-64.487
			c12.149-2.789,21.028-13.552,21.028-26.549c0-13.007-8.895-23.779-21.049-26.564c-0.2-17.42-5.671-34.008-14.191-48.419V0H228.054
			v58.992c-11.36,8.197-19.448,21.806-19.448,37.189c0,8.06,2.131,15.629,5.835,22.194c-1.223,5.921-1.883,11.766-1.952,17.423
			c-11.922,2.958-20.632,13.694-20.632,26.459c0,12.751,8.704,23.476,20.615,26.44c0.151,24.582,10.06,47.637,26.758,64.622
			c-4.588,4.105-118.069,119.221-118.069,119.221c-13.896,13.896-13.896,36.518-0.001,50.43l0.317,0.302
			c6.944,6.911,16.047,10.366,25.15,10.366c9.13,0,18.246-3.475,25.197-10.424l33.514-33.526v114.397h29.819V612h65.343h11.36
			h65.292V504.084h28.399V388.651l34.579,34.567c6.952,6.942,16.087,10.413,25.218,10.413c9.135,0,18.273-3.473,25.228-10.421
			l0.237-0.236c6.739-6.739,10.451-15.696,10.451-25.221C501.26,388.225,497.548,379.271,490.81,372.54z M398.447,147.61
			c5.68,2.41,9.656,8.028,9.656,14.648c0,6.614-3.976,12.229-9.656,14.635V147.61z M212.433,176.708
			c-5.68-2.516-9.244-8.045-9.244-14.449c0-6.411,3.564-11.945,9.244-14.464V176.708z M239.412,11.36h133.476v68.158h-76.81
			c-6.655-16.768-23.042-28.66-42.15-28.66c-5.072,0-10.256,0.851-14.516,2.394V11.36z M253.942,62.217
			c18.728,0,33.965,15.236,33.965,33.964s-15.236,33.965-33.965,33.965s-33.964-15.236-33.964-33.965S235.213,62.217,253.942,62.217
			z M223.792,188.13v-51.317c0-2.16,0.145-4.332,0.344-6.518c7.973,6.972,18.4,11.211,29.799,11.211
			c24.993,0,45.328-20.332,45.328-45.325c0-1.795-0.114-3.563-0.318-5.304h74.109c9.204,13.453,14.033,29.271,14.033,45.935v51.317
			c0,32.362-19,61.715-48.432,74.783c-10.249,4.564-21.169,6.878-32.48,6.878h-1.008c-8.605,0-17.528-1.576-26.59-4.693
			c-1.543-0.531-6.065-2.273-6.155-2.309C242.889,249.632,223.792,220.327,223.792,188.13z M373.717,341.593
			c0,7.49-6.093,13.583-13.582,13.583s-13.582-6.093-13.582-13.583c0-7.49,6.093-13.583,13.582-13.583
			C367.624,328.009,373.717,334.102,373.717,341.593z M163.801,415.183c-9.473,9.471-24.882,9.471-34.354,0l-0.307-0.294
			c-9.416-9.487-9.399-24.865,0.051-34.316l9.688-9.687l35.289,33.928L163.801,415.183z M205.333,327.555v46.068l-23.147,23.159
			l-35.28-33.927l62.234-62.235C206.634,309.338,205.333,318.375,205.333,327.555z M247.145,600.64
			c2.714-11.966,13.357-20.929,26.063-20.929s23.348,8.964,26.063,20.929H247.145z M300.47,579.945
			c-7.1-7.144-16.598-11.592-27.289-11.592c-10.376,0-19.57,4.19-26.67,10.966v-75.235h53.958V579.945z M300.47,492.724h-83.777
			V327.555c0-17.948,5.579-35.009,16.133-50.614l0.055-0.05c0,0,6.451-9.186,14.824-15.913c0.078,0.061,0.226,0.119,0.226,0.182
			v42.187c-5.68,1.12-10.353,3.726-14.17,7.541c-5.514,5.514-8.55,12.517-8.55,19.722v51.358c0,10.178,8.52,18.459,18.459,18.459
			v-11.36c-4.26,0-7.1-3.185-7.1-7.1v-51.36c0-4.109,1.917-8.369,5.235-11.688c3.032-3.03,7.537-4.841,12.065-4.841
			c9.255,0,16.778,7.415,16.778,16.528v51.36c0,3.915-3.159,7.1-7.074,7.1h-1.446v11.36h1.446c10.178,0,18.434-8.281,18.434-18.459
			v-51.36c0-13.538-9.94-24.844-22.719-27.357v-34.413c2.84,1.488,5.268,2.861,8.028,4.109l33.15,46.917V492.724z M306.192,308.241
			l-20.782-29.411c6.672,1.525,13.279,2.322,19.757,2.322h1.008c6.956,0,13.782-0.794,20.436-2.316L306.192,308.241z
			 M312.008,600.64c2.714-11.966,13.358-20.929,26.062-20.929c12.706,0,23.348,8.964,26.063,20.929H312.008z M365.788,580.424
			c-7.1-7.424-16.817-12.072-27.744-12.072c-10.148,0-19.114,4.013-26.214,10.53v-74.799h53.958V580.424z M394.187,492.724h-82.357
			V320.001l32.913-47.401c3.354-1.561,6.846-3.306,9.686-5.225v49.954c-11.36,2.581-19.249,12.469-19.249,24.266
			c0,13.754,11.196,24.943,24.949,24.943s24.933-11.189,24.933-24.943c0-11.797-7.912-21.684-19.272-24.266v-54.275
			c1.42,0.667,1.431,1.359,2.153,2.079c2.209,2.204,6.185,7.069,6.185,7.069c12.94,16.305,20.061,35.965,20.061,55.354v165.169
			H394.187z M405.546,372.586v-45.031c0-9.639-1.536-19.32-4.5-28.7l62.482,62.477l-33.94,35.289L405.546,372.586z M482.773,414.947
			l-0.234,0.234c-9.475,9.465-24.895,9.465-34.37,0.001l-10.528-10.528l33.93-35.289l11.211,11.211
			c4.592,4.585,7.121,10.685,7.121,17.176C489.9,404.244,487.371,410.348,482.773,414.947z"/>
		<circle cx="268.262" cy="173.051" r="13.402"/>
		<circle cx="343.084" cy="173.051" r="13.402"/>
		<circle cx="253.942" cy="96.74" r="10.05"/>
		<polygon points="300.47,61.058 311.829,61.058 311.829,49.698 323.189,49.698 323.189,38.339 311.829,38.339 311.829,26.979 
			300.47,26.979 300.47,38.339 289.11,38.339 289.11,49.698 300.47,49.698 		"/>
	</g>
</g>
</svg>