<svg width="24" height="24" viewBox="0 0 24 24" xmlns="http://www.w3.org/2000/svg"><path d="M13.773 2.223c.077-.073.152-.148.227-.223.5-.5 1-1 2-1 3 0 6 4 6 7-1.888 8.306-4.346 12.621-5.436 14.236l-.01.016.062-.094c-.318.447-1.036.828-1.583.841-.024.001.042.001.016.001h-.104a.985.985 0 0 1-.96-.933 4.322 4.322 0 0 1-.004-.113C13.91 19.584 13.575 14 12 14c-1.575 0-1.91 5.583-1.98 7.954a4.348 4.348 0 0 1-.005.113.985.985 0 0 1-.96.932L8.952 23h.016c-.548-.014-1.266-.395-1.584-.842l.063.094-.01-.016C6.345 20.621 3.886 16.306 2 8c0-4 3-7 6-7 1 0 1.5.5 2 1 .21.21.42.42.666.592A8.606 8.606 0 0 1 9.274 4.26c-.075.07-.015.196.085.176.876-.178 3.144-.762 4.414-2.212z" fill="currentColor"></path></svg>